# Blender v2.69 (sub 0) OBJ File: ''
# www.blender.org
mtllib level2.2.1.mtl
o Cube.000_Cube.000_Cube.000_Cube.000
v 1.127975 0.072068 1.122615
v 0.634203 0.072068 1.474079
v 1.029221 -0.072067 1.192908
v 1.127975 -0.072067 1.122615
v 0.535449 0.072068 1.544372
v 0.535449 -0.072067 1.544372
vn 0.579893 -0.000000 0.814693
vn 0.579893 -0.000001 0.814693
usemtl None.002
s 1
f 1//1 2//2 3//1 4//1
f 5//2 6//2 3//1 2//2
o Cylinder.002_Cylinder.006
v 0.977796 -0.151744 -0.194496
v 0.977796 0.151744 -0.194496
v 0.996952 -0.151744 -0.000000
v 0.996952 0.151744 0.000000
vn 0.995185 0.000000 -0.098016
usemtl None.002
s 1
f 7//3 8//3 9//3
f 8//3 10//3 9//3
o Cylinder.005_Cylinder.008
v -0.704951 -0.151744 -0.704952
v -0.704951 0.151744 -0.704952
v -0.553876 -0.151744 -0.828936
v -0.553876 0.151744 -0.828936
vn -0.634393 0.000000 -0.773011
usemtl None.002
s 1
f 11//4 12//4 13//4
f 12//4 14//4 13//4
o Cube.000_Cube.000_Cube.000_Cube.002
v 0.654227 0.072068 -1.539973
v 1.150192 0.072068 -1.191610
v 0.753420 -0.072067 -1.470300
v 0.654227 -0.072067 -1.539973
v 1.249385 0.072068 -1.121937
v 1.249385 -0.072067 -1.121937
vn 0.574776 0.000000 -0.818310
vn 0.574777 -0.000000 -0.818310
vn 0.574777 -0.000001 -0.818310
usemtl None.002
s 1
f 15//5 16//6 17//6 18//5
f 19//7 20//7 17//6 16//6
o Cube.002_Cube.000_Cube.002_Cube.002
v -1.612456 0.072068 -0.362847
v -1.612456 -0.072067 -0.362847
v -1.611675 -0.072068 0.243236
v -1.612300 0.072068 -0.241631
v -1.611518 0.072067 0.364453
v -1.611518 -0.072068 0.364453
vn -0.999999 -0.000001 0.001288
vn -0.999999 0.000003 0.001291
usemtl None.002
s 1
f 21//8 22//8 23//9 24//8
f 25//9 24//8 23//9 26//9
o Cylinder.001_Cylinder.005
v 0.977796 -0.151744 0.194496
v 0.977796 0.151744 0.194496
v 0.921064 -0.151744 0.381517
v 0.921064 0.151744 0.381517
vn 0.956941 0.000000 0.290284
usemtl None.002
s 1
f 27//10 28//10 29//10
f 28//10 30//10 29//10
o Cylinder.000_Cylinder.004
v -0.194496 -0.151744 0.977796
v -0.194496 0.151744 0.977796
v -0.381517 -0.151744 0.921063
v -0.381517 0.151744 0.921063
v -0.553877 -0.151744 0.828935
v -0.553877 0.151744 0.828935
v -0.704952 -0.151744 0.704951
v -0.704952 0.151744 0.704951
vn -0.290290 0.000000 0.956939
vn -0.290288 0.000000 0.956939
vn -0.382685 0.000000 0.923879
vn -0.382684 0.000000 0.923879
vn -0.555570 0.000000 0.831470
vn -0.555569 0.000000 0.831470
vn -0.634394 0.000000 0.773010
vn -0.634393 0.000000 0.773011
usemtl None.002
s 1
f 31//11 32//12 33//13
f 33//13 34//14 35//15
f 35//15 36//16 37//17
f 32//12 34//14 33//13
f 34//14 36//16 35//15
f 36//16 38//18 37//17
o Cylinder.004_Cylinder.007
v -0.381516 -0.151744 -0.921064
v -0.381516 0.151744 -0.921064
v -0.194494 -0.151744 -0.977796
v -0.194494 0.151744 -0.977796
vn -0.290281 0.000000 -0.956941
vn -0.290283 0.000000 -0.956941
vn -0.290282 0.000000 -0.956941
vn -0.290284 0.000000 -0.956941
usemtl None.002
s 1
f 39//19 40//20 41//21
f 40//20 42//22 41//21
