# Blender v2.69 (sub 0) OBJ File: ''
# www.blender.org
mtllib level2.2.2.mtl
o Cube.000_Cube.004_Cube.000_Cube.000
v 1.127975 -0.072067 1.122615
v 1.029221 -0.072067 1.192908
v 1.127975 -0.108101 1.122615
v 0.436694 0.144135 1.614665
v -0.285859 0.144135 0.599547
v 0.436694 -0.144135 1.614665
v 0.436694 -0.072067 1.614665
v 0.436694 0.000000 1.614665
v 0.436694 0.072068 1.614665
v 0.504177 0.144135 0.037205
v -0.285859 -0.144135 0.599547
v 1.226730 0.144135 1.052322
v 0.504177 -0.144135 0.037205
v 1.226730 -0.144135 1.052322
v 1.127975 -0.144135 1.122615
v 1.029221 -0.144135 1.192908
v 0.831711 -0.144135 1.333494
v 0.634203 -0.144135 1.474079
v 0.535449 -0.144135 1.544372
v 0.535449 -0.072067 1.544372
v 1.226730 0.072068 1.052322
v 1.226730 0.000000 1.052322
v 1.226730 -0.072067 1.052322
v 0.535449 0.144135 1.544372
v 0.634203 0.144135 1.474079
v 0.831711 0.144135 1.333494
v 1.029221 0.144135 1.192908
v 1.127975 0.144135 1.122615
v 0.535449 0.108101 1.544372
v 0.535449 0.072068 1.544372
v 0.634203 0.072068 1.474079
v 1.127975 0.072068 1.122615
vt 0.000000 0.000000
vt 1.000000 0.000000
vt 1.000000 1.000000
vt 0.000000 1.000000
vt 0.500000 0.000000
vt 1.000000 0.500000
vt 0.853553 0.146447
vt 0.793893 0.095491
vt 0.206107 0.095492
vt 0.024472 0.654509
vt 0.500000 1.000000
vt 0.975528 0.654508
vt 0.853553 0.853553
vt 0.146447 0.146447
vt 0.000000 0.500000
vt 0.146447 0.853553
vt 0.066987 0.250000
vt 0.066987 0.750000
vt 0.933013 0.750000
vt 0.933013 0.250000
vn 0.579892 0.000000 0.814693
vn 0.579893 -0.000001 0.814693
vn 0.579882 0.000000 0.814692
vn -0.805139 0.577349 -0.135533
vn 0.135533 0.577349 -0.805139
vn -0.805139 -0.577349 -0.135533
vn 0.805139 0.577349 0.135533
vn 0.135533 -0.577349 -0.805139
vn 0.579893 -0.000000 0.814693
vn -0.166021 0.000000 0.986114
vn -0.135533 -0.577349 0.805139
vn 0.410069 -0.707068 0.576106
vn 0.410077 0.707022 0.576098
vn -0.135533 0.577349 0.805139
vn 0.579893 0.000002 0.814693
vn 0.410077 -0.707022 0.576098
vn 0.805139 -0.577349 0.135533
vn 0.986114 0.000000 0.166021
vn 0.410016 0.707083 0.576067
vn 0.579893 0.000001 0.814693
vn 0.986084 0.000000 0.166082
vn 0.014018 0.997101 0.074783
vn 0.410016 -0.707083 0.576067
vn 0.410046 -0.707107 0.576074
usemtl None.000
s 1
f 1/1/1 2/2/2 3/3/3
f 5/1/4 10/2/5 11/3/6
f 10/1/5 12/2/7 13/3/8
f 5/1/4 12/2/7 10/3/5
f 20/1/9 7/2/10 6/3/11 19/4/12
f 5/1/4 11/2/6 6/3/11
f 10/1/5 13/2/8 11/3/6
f 6/1/11 11/2/6 13/3/8
f 29/1/3 24/2/13 4/3/14
f 29/1/3 30/2/1 31/3/15
f 4/1/14 9/2/10 30/3/1 29/4/3
f 3/1/3 15/2/16 14/3/17
f 23/1/18 1/2/1 3/3/3 14/4/17
f 12/1/7 28/2/19 32/3/20 21/4/21
f 17/5/22 19/6/22 18/7/22
f 1/8/1 23/9/18 22/10/18 21/11/21 32/12/20
f 4/11/14 24/13/13 25/6/19 26/7/19 27/5/19 28/14/19 12/15/7 5/16/4
f 24/5/13 29/14/3 31/15/15 32/16/20 28/11/19 27/13/19 26/6/19 25/7/19
f 7/5/10 8/17/10 9/18/10 4/11/14 5/19/4 6/20/11
f 21/19/21 22/20/18 23/5/18 14/17/17 13/18/8 12/11/7
f 16/14/23 15/15/16 3/16/3 2/11/2 20/13/9 19/6/12 17/5/24
f 15/13/16 16/6/23 17/7/24 19/14/12 6/15/11 13/16/8 14/11/17
f 20/9/9 30/10/1 9/11/10 8/12/10 7/8/10
o Cube.000_Cube.005_Cube.000_Cube.007
v -1.609293 -0.072067 0.407096
v -1.609747 -0.072067 0.285880
v -1.609293 -0.108101 0.407096
v -1.612470 0.144135 -0.441416
v -0.366466 0.144135 -0.446081
v -1.612470 -0.144135 -0.441416
v -1.612470 -0.072067 -0.441416
v -1.612470 0.000000 -0.441416
v -1.612470 0.072068 -0.441416
v -0.362835 0.144135 0.523648
v -0.366466 -0.144135 -0.446081
v -1.608839 0.144135 0.528312
v -0.362836 -0.144135 0.523648
v -1.608839 -0.144135 0.528312
v -1.609293 -0.144135 0.407096
v -1.609747 -0.144135 0.285880
v -1.610655 -0.144135 0.043448
v -1.611562 -0.144135 -0.198984
v -1.612016 -0.144135 -0.320200
v -1.612016 -0.072067 -0.320200
v -1.608839 0.072068 0.528312
v -1.608839 -0.000000 0.528312
v -1.608839 -0.072067 0.528312
v -1.612016 0.144135 -0.320200
v -1.611562 0.144135 -0.198984
v -1.610655 0.144135 0.043448
v -1.609747 0.144135 0.285880
v -1.609293 0.144135 0.407096
v -1.612016 0.108101 -0.320200
v -1.612016 0.072068 -0.320200
v -1.611562 0.072068 -0.198984
v -1.609293 0.072068 0.407096
vt 0.000000 0.000000
vt 1.000000 0.000000
vt 1.000000 1.000000
vt 0.000000 1.000000
vt 0.146447 0.853553
vt 0.500000 1.000000
vt 0.853553 0.853553
vt 1.000000 0.500000
vt 0.853553 0.146447
vt 0.500000 0.000000
vt 0.146447 0.146447
vt 0.000000 0.500000
vt 0.024472 0.654509
vt 0.975528 0.654508
vt 0.793893 0.095491
vt 0.206107 0.095492
vt 0.933013 0.750000
vt 0.933013 0.250000
vt 0.066987 0.250000
vt 0.066987 0.750000
vn -0.999993 -0.000002 0.003745
vn -0.999993 0.000001 0.003744
vn -0.999969 0.000000 0.003723
vn 0.575182 0.577349 -0.579485
vn 0.579485 0.577349 0.575182
vn 0.575182 -0.577349 -0.579485
vn -0.575182 0.577349 0.579485
vn 0.579485 -0.577349 0.575182
vn -0.999993 0.000000 0.003745
vn -0.709738 0.000000 -0.704428
vn -0.579485 -0.577349 -0.575182
vn -0.707083 -0.707083 0.002625
vn -0.707083 0.707083 0.002625
vn -0.579485 0.577349 -0.575182
vn -0.999993 0.000000 0.003746
vn -0.999993 -0.000003 0.003744
vn -0.575182 -0.577349 0.579485
vn -0.704428 0.000000 0.709738
vn -0.999993 -0.000001 0.003745
usemtl None.000
s 1
f 33/21/25 34/22/26 35/23/27
f 37/21/28 42/22/29 43/23/30
f 42/21/29 44/22/31 45/23/32
f 37/21/28 44/22/31 42/23/29
f 52/21/33 39/22/34 38/23/35 51/24/36
f 37/21/28 43/22/30 38/23/35
f 42/21/29 45/22/32 43/23/30
f 38/21/35 43/22/30 45/23/32
f 61/21/27 56/22/37 36/23/38
f 61/21/27 62/22/39 63/23/40
f 36/21/38 41/22/34 62/23/39 61/24/27
f 35/21/27 47/22/36 46/23/41
f 55/21/42 33/22/25 35/23/27 46/24/41
f 44/21/31 60/22/37 64/23/43 53/24/42
f 35/25/27 34/26/26 52/27/33 51/28/36 50/29/36 49/30/36 48/31/36 47/32/36
f 59/27/37 58/28/37 57/29/37 56/30/37 61/31/27 63/32/40 64/25/43 60/26/37
f 47/27/36 48/28/36 49/29/36 50/30/36 51/31/36 38/32/35 45/25/32 46/26/41
f 54/33/42 53/26/42 64/34/43 33/35/25 55/36/42
f 37/25/28 36/26/38 56/27/37 57/28/37 58/29/37 59/30/37 60/31/37 44/32/31
f 53/37/42 54/38/42 55/30/42 46/39/41 45/40/32 44/26/31
f 39/30/34 40/39/34 41/40/34 36/26/38 37/37/28 38/38/35
f 52/36/33 62/33/39 41/26/34 40/34/34 39/35/34
o Cylinder.003
v 0.000000 -0.151744 -0.996952
v 0.000000 0.151744 -0.996952
v 0.194496 -0.151744 -0.977796
v 0.194496 0.151744 -0.977796
v 0.381517 -0.151744 -0.921064
v 0.381517 0.151744 -0.921064
v 0.553877 -0.151744 -0.828935
v 0.553877 0.151744 -0.828935
v 0.704952 -0.151744 -0.704952
v 0.704952 0.151744 -0.704952
v 0.828935 -0.151744 -0.553877
v 0.828935 0.151744 -0.553877
v 0.921064 -0.151744 -0.381517
v 0.921064 0.151744 -0.381517
v 0.977796 -0.151744 -0.194496
v 0.996952 -0.151744 -0.000000
v 0.996952 0.151744 0.000000
v 0.977796 -0.151744 0.194496
v 0.921064 -0.151744 0.381517
v 0.921064 0.151744 0.381517
v 0.828935 -0.151744 0.553877
v 0.828935 0.151744 0.553877
v 0.704952 -0.151744 0.704952
v 0.704952 0.151744 0.704952
v 0.553877 -0.151744 0.828935
v 0.553877 0.151744 0.828935
v 0.381517 -0.151744 0.921064
v 0.381517 0.151744 0.921064
v 0.194495 -0.151744 0.977796
v 0.194495 0.151744 0.977796
v 0.000000 -0.151744 0.996952
v 0.000000 0.151744 0.996952
v -0.194496 -0.151744 0.977796
v -0.704952 -0.151744 0.704951
v -0.704952 0.151744 0.704951
v -0.828936 -0.151744 0.553876
v -0.828936 0.151744 0.553876
v -0.921064 -0.151744 0.381516
v -0.921064 0.151744 0.381516
v -0.977796 -0.151744 0.194495
v -0.977796 0.151744 0.194495
v -0.996952 -0.151744 -0.000001
v -0.996952 0.151744 -0.000001
v -0.977796 -0.151744 -0.194497
v -0.977796 0.151744 -0.194497
v -0.921063 -0.151744 -0.381518
v -0.921063 0.151744 -0.381518
v -0.828935 -0.151744 -0.553878
v -0.828935 0.151744 -0.553878
v -0.704951 -0.151744 -0.704952
v -0.553876 -0.151744 -0.828936
v -0.553876 0.151744 -0.828936
v -0.381516 -0.151744 -0.921064
v -0.194494 0.151744 -0.977796
v -0.194494 -0.151744 -0.977796
v 0.977796 0.151744 -0.194496
v 0.977796 0.151744 0.194496
v -0.194496 0.151744 0.977796
v -0.704951 0.151744 -0.704952
v -0.381516 0.151744 -0.921064
v -0.553877 0.151744 0.828935
v -0.381517 0.151744 0.921063
v -0.553877 -0.151744 0.828935
v -0.381517 -0.151744 0.921063
vt 0.000000 0.000000
vt 1.000000 0.000000
vt 0.877586 0.989664
vt 1.000000 1.000000
vt 0.039655 0.043928
vt 0.044828 -0.279070
vt -0.086207 0.568475
vt 0.974138 0.002584
vn 0.000000 -0.685690 -0.727866
vn 0.000000 0.685690 -0.727866
vn 0.142003 -0.685690 -0.713889
vn 0.142003 0.685690 -0.713889
vn 0.278542 -0.685690 -0.672475
vn 0.278542 0.685690 -0.672475
vn 0.404370 -0.685690 -0.605213
vn 0.404370 0.685690 -0.605213
vn 0.514695 -0.685690 -0.514695
vn 0.514695 0.685690 -0.514695
vn 0.605213 -0.685690 -0.404370
vn 0.605213 0.685690 -0.404370
vn 0.672475 -0.685690 -0.278542
vn 0.672475 0.685690 -0.278542
vn 0.450325 -0.882353 -0.136604
vn 0.468322 -0.882353 0.046125
vn 0.468322 0.882353 0.046125
vn 0.415022 -0.882353 0.221835
vn 0.415022 0.882353 0.221835
vn 0.605213 -0.685690 0.404370
vn 0.605213 0.685690 0.404370
vn 0.514695 -0.685690 0.514664
vn 0.514695 0.685690 0.514695
vn 0.404370 -0.685690 0.605213
vn 0.404370 0.685690 0.605213
vn 0.278542 -0.685690 0.672475
vn 0.278542 0.685690 0.672475
vn 0.142003 -0.685690 0.713889
vn 0.141972 0.685690 0.713889
vn 0.000000 -0.685690 0.727866
vn 0.000000 0.685690 0.727866
vn -0.046125 -0.882353 0.468323
vn -0.363770 -0.882353 0.298537
vn -0.363770 0.882353 0.298539
vn -0.605213 -0.685690 0.404370
vn -0.605213 0.685690 0.404370
vn -0.672475 -0.685690 0.278542
vn -0.672475 0.685690 0.278542
vn -0.713889 -0.685690 0.142003
vn -0.713889 0.685690 0.142003
vn -0.727866 -0.685690 0.000000
vn -0.727866 0.685690 0.000000
vn -0.713889 -0.685690 -0.142003
vn -0.713889 0.685690 -0.142003
vn -0.672475 -0.685690 -0.278542
vn -0.672475 0.685690 -0.278542
vn -0.605213 -0.685690 -0.404370
vn -0.605213 0.685690 -0.404370
vn -0.363768 -0.882353 -0.298539
vn -0.221833 -0.882353 -0.415022
vn -0.221833 0.882353 -0.415022
vn -0.046126 0.882353 -0.468322
vn -0.046126 -0.882353 -0.468322
vn 0.450325 0.882353 -0.136604
vn -0.046125 0.882352 0.468323
vn -0.363768 0.882353 -0.298539
vn -0.221834 0.882353 -0.415022
vn -0.000000 1.000000 0.000000
vn 0.000000 -1.000000 0.000000
usemtl None.000
s 1
f 65/41/44 66/42/45 67/43/46
f 67/41/46 68/42/47 69/44/48
f 69/41/48 70/42/49 71/44/50
f 71/41/50 72/42/51 73/44/52
f 73/41/52 74/42/53 75/44/54
f 75/41/54 76/42/55 77/44/56
f 77/41/56 78/42/57 79/44/58
f 80/41/59 81/42/60 82/44/59
f 83/41/61 84/42/62 85/44/63
f 85/41/63 86/42/64 87/44/65
f 87/41/65 88/42/66 89/44/67
f 89/41/67 90/42/68 91/44/69
f 91/41/69 92/42/70 93/44/71
f 93/41/71 94/42/72 95/44/73
f 95/41/73 96/42/74 97/44/75
f 98/41/76 99/42/77 100/44/78
f 100/41/78 101/42/79 102/44/80
f 102/41/80 103/42/81 104/44/82
f 104/41/82 105/42/83 106/44/84
f 106/41/84 107/42/85 108/44/86
f 108/41/86 109/42/87 110/44/88
f 110/45/88 111/42/89 112/44/90
f 112/41/90 113/42/91 114/44/92
f 115/41/93 116/42/94 117/44/93
f 68/41/47 66/42/45 70/44/49
f 118/41/95 65/42/44 119/44/96
f 65/41/44 67/42/46 119/44/96
f 66/41/45 68/42/47 67/43/46
f 68/41/47 70/42/49 69/44/48
f 70/41/49 72/42/51 71/44/50
f 72/46/51 74/42/53 73/44/52
f 74/41/53 76/42/55 75/44/54
f 76/41/55 78/42/57 77/44/56
f 78/41/57 120/42/97 79/44/58
f 81/41/60 121/42/60 82/44/59
f 84/41/62 86/42/64 85/44/63
f 86/41/64 88/42/66 87/44/65
f 88/41/66 90/42/68 89/44/67
f 90/41/68 92/42/70 91/44/69
f 92/41/70 94/42/72 93/44/71
f 94/41/72 96/42/74 95/44/73
f 96/41/74 122/42/98 97/44/75
f 99/41/77 101/42/79 100/44/78
f 101/41/79 103/42/81 102/44/80
f 103/41/81 105/42/83 104/44/82
f 105/41/83 107/42/85 106/44/84
f 107/41/85 109/42/87 108/44/86
f 109/41/87 111/42/89 110/44/88
f 111/41/89 113/42/91 112/44/90
f 113/41/91 123/42/99 114/44/92
f 116/41/94 124/42/100 117/44/93
f 66/41/45 118/42/95 70/44/49
f 118/41/95 124/42/100 70/44/49
f 124/41/100 116/42/94 70/44/49
f 116/41/94 123/42/99 70/44/49
f 123/41/99 113/42/91 70/44/49
f 113/41/91 111/42/89 70/44/49
f 111/41/89 109/42/87 70/44/49
f 109/41/87 107/42/85 70/44/49
f 107/41/85 105/42/83 70/44/49
f 105/41/83 103/42/81 70/44/49
f 103/41/81 101/42/79 70/44/49
f 81/41/60 84/42/62 121/44/60
f 120/41/97 84/42/62 81/44/60
f 120/41/97 86/42/64 84/44/62
f 70/41/49 74/42/53 72/44/51
f 70/41/49 101/42/79 74/44/53
f 101/41/79 99/42/77 125/44/101
f 74/41/53 101/42/79 125/44/101
f 88/41/66 92/42/70 90/44/68
f 86/41/64 92/42/70 88/44/66
f 120/41/97 92/42/70 86/44/64
f 120/41/97 94/42/72 92/44/70
f 78/41/57 94/42/72 120/44/97
f 78/41/57 76/42/55 94/44/72
f 76/41/55 74/42/53 94/44/72
f 74/41/53 125/42/101 94/44/72
f 125/41/101 126/42/101 94/44/72
f 126/41/101 122/42/98 94/44/72
f 122/41/98 96/42/74 94/44/72
f 66/41/45 65/42/44 118/44/95
f 67/41/46 69/42/48 119/44/96
f 69/41/48 71/42/50 119/44/96
f 71/41/50 73/42/52 119/44/96
f 73/41/52 75/42/54 119/44/96
f 75/41/54 77/42/56 119/44/96
f 77/41/56 79/42/58 119/44/96
f 79/41/58 80/42/59 119/44/96
f 80/41/59 82/42/59 119/44/96
f 82/41/59 83/42/61 119/44/96
f 83/41/61 85/42/63 119/44/96
f 85/41/63 87/42/65 119/44/96
f 87/41/65 89/42/67 91/44/69
f 119/47/96 87/42/65 91/44/69
f 100/41/78 127/42/102 98/44/76
f 100/41/78 128/42/102 127/44/102
f 102/41/80 128/42/102 100/44/78
f 102/41/80 97/42/75 128/44/102
f 104/41/82 97/42/75 102/44/80
f 117/41/93 119/42/96 115/44/93
f 119/41/96 91/42/69 115/44/93
f 115/41/93 91/42/69 114/44/92
f 91/41/69 93/42/71 114/44/92
f 93/41/71 95/42/73 114/44/92
f 95/41/73 97/42/75 114/44/92
f 97/41/75 104/42/82 114/44/92
f 104/41/82 106/42/84 114/44/92
f 106/41/84 108/42/86 114/44/92
f 108/41/86 110/42/88 114/44/92
f 110/45/88 112/48/90 114/44/92
o Cube.000_Cube.004_Cube.000_Cube.005
v 0.654227 -0.072067 -1.539973
v 0.753420 -0.072067 -1.470300
v 0.654227 -0.108101 -1.539973
v 1.348578 0.144135 -1.052264
v 0.632398 0.144135 -0.032640
v 1.348578 -0.144135 -1.052265
v 1.348578 -0.072067 -1.052264
v 1.348578 0.000000 -1.052264
v 1.348578 0.072068 -1.052264
v -0.161146 0.144135 -0.590022
v 0.632398 -0.144135 -0.032640
v 0.555034 0.144135 -1.609646
v -0.161146 -0.144135 -0.590022
v 0.555034 -0.144135 -1.609646
v 0.654227 -0.144135 -1.539973
v 0.753420 -0.144135 -1.470300
v 0.951806 -0.144135 -1.330955
v 1.150192 -0.144135 -1.191610
v 1.249385 -0.144135 -1.121937
v 1.249385 -0.072067 -1.121937
v 0.555034 0.072068 -1.609646
v 0.555034 0.000000 -1.609646
v 0.555034 -0.072067 -1.609646
v 1.249385 0.144135 -1.121937
v 1.150192 0.144135 -1.191610
v 0.951806 0.144135 -1.330955
v 0.753420 0.144135 -1.470300
v 0.654227 0.144135 -1.539973
v 1.249385 0.108101 -1.121937
v 1.249385 0.072068 -1.121937
v 1.150192 0.072068 -1.191610
v 0.654227 0.072068 -1.539973
vt 0.000000 0.000000
vt 1.000000 0.000000
vt 1.000000 1.000000
vt 0.000000 1.000000
vt 0.500000 0.000000
vt 1.000000 0.500000
vt 0.853553 0.146447
vt 0.793893 0.095491
vt 0.206107 0.095492
vt 0.024472 0.654509
vt 0.500000 1.000000
vt 0.975528 0.654508
vt 0.853553 0.853553
vt 0.146447 0.146447
vt 0.000000 0.500000
vt 0.146447 0.853553
vt 0.066987 0.250000
vt 0.066987 0.750000
vt 0.933013 0.750000
vt 0.933013 0.250000
vn 0.574777 0.000000 -0.818310
vn 0.574777 -0.000001 -0.818310
vn 0.574755 0.000000 -0.818293
vn 0.140599 0.577349 0.804285
vn -0.804285 0.577349 0.140599
vn 0.140599 -0.577349 0.804285
vn -0.140599 0.577349 -0.804285
vn -0.804285 -0.577349 0.140599
vn 0.985046 0.000000 -0.172185
vn 0.804285 -0.577349 -0.140599
vn 0.406460 -0.707052 -0.578678
vn 0.406446 0.707022 -0.578661
vn 0.804285 0.577349 -0.140599
vn 0.574777 0.000002 -0.818310
vn 0.406446 -0.707022 -0.578661
vn -0.140599 -0.577349 -0.804285
vn -0.172185 0.000000 -0.985046
vn 0.574778 0.000001 -0.818309
vn -0.172124 0.000000 -0.985046
vn 0.011601 0.999066 -0.041628
vn 0.406415 0.707083 -0.578631
vn 0.406415 -0.707083 -0.578631
vn 0.406428 -0.707107 -0.578632
usemtl None.000
s 1
f 129/49/103 130/50/104 131/51/105
f 133/49/106 138/50/107 139/51/108
f 138/49/107 140/50/109 141/51/110
f 133/49/106 140/50/109 138/51/107
f 148/49/103 135/50/111 134/51/112 147/52/113
f 133/49/106 139/50/108 134/51/112
f 138/49/107 141/50/110 139/51/108
f 134/49/112 139/50/108 141/51/110
f 157/49/105 152/50/114 132/51/115
f 157/49/105 158/50/103 159/51/116
f 132/49/115 137/50/111 158/51/103 157/52/105
f 131/49/105 143/50/117 142/51/118
f 151/49/119 129/50/103 131/51/105 142/52/118
f 140/49/109 156/50/114 160/51/120 149/52/121
f 145/53/122 147/54/122 146/55/122
f 129/56/103 151/57/119 150/58/119 149/59/121 160/60/120
f 132/59/115 152/61/114 153/54/123 154/55/123 155/53/123 156/62/114 140/63/109 133/64/106
f 152/53/114 157/62/105 159/63/116 160/64/120 156/59/114 155/61/123 154/54/123 153/55/123
f 135/53/111 136/65/111 137/66/111 132/59/115 133/67/106 134/68/112
f 149/67/121 150/68/119 151/53/119 142/65/118 141/66/110 140/59/109
f 144/62/124 143/63/117 131/64/105 130/59/104 148/61/103 147/54/113 145/53/125
f 143/61/117 144/54/124 145/55/125 147/62/113 134/63/112 141/64/110 142/59/118
f 148/57/103 158/58/103 137/59/111 136/60/111 135/56/111
