# Blender v2.69 (sub 0) OBJ File: ''
# www.blender.org
mtllib level.mtl
o Cube.001_Cube.007
v 1.173442 -0.144135 1.165736
v 0.333733 -0.144135 1.650787
v -0.289509 -0.144135 0.571844
v 0.550200 -0.144135 0.086793
v 1.173442 0.144135 1.165736
v 0.333733 0.144135 1.650787
v -0.289509 0.144135 0.571844
v 0.550200 0.144135 0.086793
vn 0.788720 0.577349 0.211127
vn -0.211127 0.577349 0.788720
vn 0.788720 -0.577349 0.211127
vn -0.788720 0.577349 -0.211127
vn -0.211127 -0.577349 0.788720
vn 0.211127 0.577349 -0.788720
vn -0.788720 -0.577349 -0.211127
vn 0.211127 -0.577349 -0.788720
usemtl None
s 1
f 5//1 6//2 1//3
f 6//2 7//4 2//5
f 7//4 8//6 3//7
f 8//6 5//1 4//8
f 1//3 2//5 4//8
f 8//6 7//4 5//1
f 6//2 2//5 1//3
f 7//4 3//7 2//5
f 8//6 4//8 3//7
f 5//1 1//3 4//8
f 2//5 3//7 4//8
f 7//4 6//2 5//1
o Cube.000_Cube.006
v 0.235511 -0.144135 -1.686285
v 1.121342 -0.144135 -1.291710
v 0.614352 -0.144135 -0.153506
v -0.271479 -0.144135 -0.548081
v 0.235511 0.144135 -1.686285
v 1.121342 0.144135 -1.291710
v 0.614352 0.144135 -0.153506
v -0.271479 0.144135 -0.548081
vn -0.292459 0.577349 -0.762291
vn 0.762291 0.577349 -0.292459
vn -0.292459 -0.577349 -0.762291
vn 0.292459 0.577349 0.762291
vn 0.762291 -0.577349 -0.292459
vn -0.762291 0.577349 0.292459
vn 0.292459 -0.577349 0.762291
vn -0.762291 -0.577349 0.292459
usemtl None
s 1
f 13//9 14//10 9//11
f 14//10 15//12 10//13
f 15//12 16//14 11//15
f 16//14 13//9 12//16
f 9//11 10//13 12//16
f 16//14 15//12 13//9
f 14//10 10//13 9//11
f 15//12 11//15 10//13
f 16//14 12//16 11//15
f 13//9 9//11 12//16
f 10//13 11//15 12//16
f 15//12 14//10 13//9
o Cube.002_Cube.004
v -1.611362 -0.144135 0.485670
v -1.612612 -0.144135 -0.484064
v -0.366600 -0.144135 -0.485670
v -0.365351 -0.144135 0.484064
v -1.611362 0.144135 0.485670
v -1.612612 0.144135 -0.484064
v -0.366600 0.144135 -0.485670
v -0.365351 0.144135 0.484064
vn -0.576586 0.577349 0.578082
vn -0.578082 0.577349 -0.576586
vn -0.576586 -0.577349 0.578082
vn 0.576586 0.577349 -0.578082
vn -0.578082 -0.577349 -0.576586
vn 0.578082 0.577349 0.576586
vn 0.576586 -0.577349 -0.578082
vn 0.578082 -0.577349 0.576586
usemtl None
s 1
f 21//17 22//18 17//19
f 22//18 23//20 18//21
f 23//20 24//22 19//23
f 24//22 21//17 20//24
f 17//19 18//21 20//24
f 24//22 23//20 21//17
f 22//18 18//21 17//19
f 23//20 19//23 18//21
f 24//22 20//24 19//23
f 21//17 17//19 20//24
f 18//21 19//23 20//24
f 23//20 22//18 21//17
o Cylinder
v 0.000000 -0.151744 -0.996952
v 0.000000 0.151744 -0.996952
v 0.194496 -0.151744 -0.977796
v 0.194496 0.151744 -0.977796
v 0.381517 -0.151744 -0.921064
v 0.381517 0.151744 -0.921064
v 0.553877 -0.151744 -0.828935
v 0.553877 0.151744 -0.828935
v 0.704952 -0.151744 -0.704952
v 0.704952 0.151744 -0.704952
v 0.828935 -0.151744 -0.553877
v 0.828935 0.151744 -0.553877
v 0.921064 -0.151744 -0.381517
v 0.921064 0.151744 -0.381517
v 0.977796 -0.151744 -0.194496
v 0.977796 0.151744 -0.194496
v 0.996952 -0.151744 -0.000000
v 0.996952 0.151744 -0.000000
v 0.977796 -0.151744 0.194496
v 0.977796 0.151744 0.194496
v 0.921064 -0.151744 0.381517
v 0.921064 0.151744 0.381517
v 0.828935 -0.151744 0.553877
v 0.828935 0.151744 0.553877
v 0.704952 -0.151744 0.704952
v 0.704952 0.151744 0.704952
v 0.553877 -0.151744 0.828935
v 0.553877 0.151744 0.828935
v 0.381517 -0.151744 0.921064
v 0.381517 0.151744 0.921064
v 0.194495 -0.151744 0.977796
v 0.194495 0.151744 0.977796
v -0.000000 -0.151744 0.996952
v -0.000000 0.151744 0.996952
v -0.194496 -0.151744 0.977796
v -0.194496 0.151744 0.977796
v -0.381517 -0.151744 0.921063
v -0.381517 0.151744 0.921063
v -0.553877 -0.151744 0.828935
v -0.553877 0.151744 0.828935
v -0.704952 -0.151744 0.704951
v -0.704952 0.151744 0.704951
v -0.828936 -0.151744 0.553876
v -0.828936 0.151744 0.553876
v -0.921064 -0.151744 0.381516
v -0.921064 0.151744 0.381516
v -0.977796 -0.151744 0.194495
v -0.977796 0.151744 0.194495
v -0.996952 -0.151744 -0.000001
v -0.996952 0.151744 -0.000001
v -0.977796 -0.151744 -0.194497
v -0.977796 0.151744 -0.194497
v -0.921063 -0.151744 -0.381518
v -0.921063 0.151744 -0.381518
v -0.828935 -0.151744 -0.553878
v -0.828935 0.151744 -0.553878
v -0.704951 -0.151744 -0.704952
v -0.704951 0.151744 -0.704952
v -0.553876 -0.151744 -0.828936
v -0.553876 0.151744 -0.828936
v -0.381516 -0.151744 -0.921064
v -0.381516 0.151744 -0.921064
v -0.194494 -0.151744 -0.977796
v -0.194494 0.151744 -0.977796
vn 0.000000 -0.685690 -0.727866
vn 0.000000 0.685690 -0.727866
vn 0.142003 -0.685690 -0.713889
vn 0.142003 0.685690 -0.713889
vn 0.278542 -0.685690 -0.672475
vn 0.278542 0.685690 -0.672475
vn 0.404370 -0.685690 -0.605213
vn 0.404370 0.685690 -0.605213
vn 0.514664 -0.685690 -0.514664
vn 0.514664 0.685690 -0.514664
vn 0.605213 -0.685690 -0.404370
vn 0.605213 0.685690 -0.404370
vn 0.672475 -0.685690 -0.278542
vn 0.672475 0.685690 -0.278542
vn 0.713889 -0.685690 -0.142003
vn 0.713889 0.685690 -0.142003
vn 0.727866 -0.685690 0.000000
vn 0.727866 0.685690 0.000000
vn 0.713889 -0.685690 0.142003
vn 0.713889 0.685690 0.142003
vn 0.672475 -0.685690 0.278542
vn 0.672475 0.685690 0.278542
vn 0.605213 -0.685690 0.404370
vn 0.605213 0.685690 0.404370
vn 0.514664 -0.685690 0.514664
vn 0.514664 0.685690 0.514664
vn 0.404370 -0.685690 0.605213
vn 0.404370 0.685690 0.605213
vn 0.278542 -0.685690 0.672475
vn 0.278542 0.685690 0.672475
vn 0.142003 -0.685690 0.713889
vn 0.142003 0.685690 0.713889
vn 0.000000 -0.685690 0.727866
vn 0.000000 0.685690 0.727866
vn -0.142003 -0.685690 0.713889
vn -0.142003 0.685690 0.713889
vn -0.278542 -0.685690 0.672475
vn -0.278542 0.685690 0.672475
vn -0.404370 -0.685690 0.605213
vn -0.404370 0.685690 0.605213
vn -0.514664 -0.685690 0.514664
vn -0.514664 0.685690 0.514664
vn -0.605213 -0.685690 0.404370
vn -0.605213 0.685690 0.404370
vn -0.672475 -0.685690 0.278542
vn -0.672475 0.685690 0.278542
vn -0.713889 -0.685690 0.142003
vn -0.713889 0.685690 0.142003
vn -0.727866 -0.685690 0.000000
vn -0.727866 0.685690 0.000000
vn -0.713889 -0.685690 -0.142003
vn -0.713889 0.685690 -0.142003
vn -0.672475 -0.685690 -0.278542
vn -0.672475 0.685690 -0.278542
vn -0.605213 -0.685690 -0.404370
vn -0.605213 0.685690 -0.404370
vn -0.514664 -0.685690 -0.514695
vn -0.514664 0.685690 -0.514695
vn -0.404370 -0.685690 -0.605213
vn -0.404370 0.685690 -0.605213
vn -0.278542 -0.685690 -0.672475
vn -0.142003 -0.685690 -0.713889
vn -0.142003 0.685690 -0.713889
vn -0.278542 0.685690 -0.672475
usemtl None
s 1
f 25//25 26//26 27//27
f 27//27 28//28 29//29
f 29//29 30//30 31//31
f 31//31 32//32 33//33
f 33//33 34//34 35//35
f 35//35 36//36 37//37
f 37//37 38//38 39//39
f 39//39 40//40 41//41
f 41//41 42//42 43//43
f 43//43 44//44 45//45
f 45//45 46//46 47//47
f 47//47 48//48 49//49
f 49//49 50//50 51//51
f 51//51 52//52 53//53
f 53//53 54//54 55//55
f 55//55 56//56 57//57
f 57//57 58//58 59//59
f 59//59 60//60 61//61
f 61//61 62//62 63//63
f 63//63 64//64 65//65
f 65//65 66//66 67//67
f 67//67 68//68 69//69
f 69//69 70//70 71//71
f 71//71 72//72 73//73
f 73//73 74//74 75//75
f 75//75 76//76 77//77
f 77//77 78//78 79//79
f 79//79 80//80 81//81
f 81//81 82//82 83//83
f 83//83 84//84 85//85
f 28//28 26//26 30//30
f 87//86 88//87 25//25
f 85//85 86//88 87//86
f 25//25 27//27 87//86
f 26//26 28//28 27//27
f 28//28 30//30 29//29
f 30//30 32//32 31//31
f 32//32 34//34 33//33
f 34//34 36//36 35//35
f 36//36 38//38 37//37
f 38//38 40//40 39//39
f 40//40 42//42 41//41
f 42//42 44//44 43//43
f 44//44 46//46 45//45
f 46//46 48//48 47//47
f 48//48 50//50 49//49
f 50//50 52//52 51//51
f 52//52 54//54 53//53
f 54//54 56//56 55//55
f 56//56 58//58 57//57
f 58//58 60//60 59//59
f 60//60 62//62 61//61
f 62//62 64//64 63//63
f 64//64 66//66 65//65
f 66//66 68//68 67//67
f 68//68 70//70 69//69
f 70//70 72//72 71//71
f 72//72 74//74 73//73
f 74//74 76//76 75//75
f 76//76 78//78 77//77
f 78//78 80//80 79//79
f 80//80 82//82 81//81
f 82//82 84//84 83//83
f 84//84 86//88 85//85
f 26//26 88//87 30//30
f 88//87 86//88 30//30
f 86//88 84//84 30//30
f 84//84 82//82 30//30
f 82//82 80//80 30//30
f 80//80 78//78 30//30
f 78//78 76//76 30//30
f 76//76 74//74 30//30
f 74//74 72//72 30//30
f 72//72 70//70 30//30
f 70//70 68//68 30//30
f 42//42 46//46 44//44
f 40//40 46//46 42//42
f 40//40 48//48 46//46
f 30//30 34//34 32//32
f 30//30 68//68 34//34
f 68//68 66//66 64//64
f 34//34 68//68 64//64
f 50//50 54//54 52//52
f 48//48 54//54 50//50
f 40//40 54//54 48//48
f 40//40 56//56 54//54
f 38//38 56//56 40//40
f 38//38 36//36 56//56
f 36//36 34//34 56//56
f 34//34 64//64 56//56
f 64//64 62//62 56//56
f 62//62 60//60 56//56
f 60//60 58//58 56//56
f 88//87 26//26 25//25
f 86//88 88//87 87//86
f 27//27 29//29 87//86
f 29//29 31//31 87//86
f 31//31 33//33 87//86
f 33//33 35//35 87//86
f 35//35 37//37 87//86
f 37//37 39//39 87//86
f 39//39 41//41 87//86
f 41//41 43//43 87//86
f 43//43 45//45 87//86
f 45//45 47//47 87//86
f 47//47 49//49 87//86
f 49//49 51//51 53//53
f 87//86 49//49 53//53
f 67//67 63//63 65//65
f 67//67 61//61 63//63
f 69//69 61//61 67//67
f 69//69 59//59 61//61
f 71//71 59//59 69//69
f 85//85 87//86 83//83
f 87//86 53//53 83//83
f 83//83 53//53 81//81
f 53//53 55//55 81//81
f 55//55 57//57 81//81
f 57//57 59//59 81//81
f 59//59 71//71 81//81
f 71//71 73//73 81//81
f 73//73 75//75 81//81
f 75//75 77//77 81//81
f 77//77 79//79 81//81
